<?xml version="1.0" encoding="utf-8"?>
<!-- Generator: Adobe Illustrator 24.0.0, SVG Export Plug-In . SVG Version: 6.00 Build 0)  -->
<svg version="1.1" id="Layer_1" xmlns="http://www.w3.org/2000/svg" xmlns:xlink="http://www.w3.org/1999/xlink" x="0px" y="0px"
	 viewBox="0 0 18 18" style="enable-background:new 0 0 18 18;" xml:space="preserve">
<style type="text/css">
	.st0{fill-rule:evenodd;clip-rule:evenodd;fill:#6366F1;}
</style>
<path class="st0" d="M1.6,0C0.7,0,0,0.7,0,1.6v14.9C0,17.3,0.7,18,1.6,18h14.9c0.9,0,1.6-0.7,1.6-1.6V1.6C18,0.7,17.3,0,16.4,0H1.6z
	 M16.4,4.1H1.6v12.3h14.7V4.1z M14.1,2.3c0,0.4-0.3,0.8-0.8,0.8c-0.4,0-0.8-0.3-0.8-0.8c0,0,0,0,0-0.1c0-0.4,0.4-0.8,0.8-0.8
	C13.7,1.6,14.1,1.9,14.1,2.3z M3.9,3.1c0.4,0,0.8-0.3,0.8-0.8S4.4,1.6,4,1.6c0,0,0,0-0.1,0c-0.4,0-0.8,0.4-0.8,0.8
	C3.2,2.8,3.5,3.1,3.9,3.1z M5,10.5C4.8,10.3,4.8,10,5,9.9c0,0,0,0,0,0l0.6-0.6c0.2-0.2,0.4-0.2,0.6,0c0,0,0,0,0,0l2,2L12.4,7
	c0.2-0.2,0.4-0.2,0.6,0c0,0,0,0,0,0l0.6,0.6c0.2,0.2,0.2,0.4,0,0.6l-5.1,5.1c-0.2,0.2-0.4,0.2-0.6,0c0,0,0,0,0,0
	C7.8,13.2,5,10.4,5,10.5z"/>
</svg>
